<svg height="67.795" width="70" xmlns="http://www.w3.org/2000/svg"><path d="m-98.404477 568.65334c-1.42881-.4618-2.676773-1.6005-3.379643-3.084-.39361-.8307-.43087-1.0281-.43087-2.2823 0-1.2623.0357-1.4485.4432-2.3087.5514-1.1642 1.67172-2.2826 2.723043-2.7183l.74675-.3095v-4.43694-4.43691h-10.715013c-9.24833 0-10.85986-.0298-11.77328-.21784-5.35738-1.10281-9.37455-4.90995-10.755-10.19269-.5592-2.13998-.48482-5.25148.17743-7.42258.62919-2.0627 2.06422-4.3368 3.66313-5.8051.95708-.8789 2.95422-2.188 3.96188-2.597.74922-.304.75203-.3074.66709-.7991-.0469-.2717-.12131-1.3058-.16532-2.2981-.0951-2.1433.12739-3.5121.84073-5.173.73726-1.7166 1.29402-2.5443 2.61126-3.8817 1.45813-1.4806 2.81129-2.3281 4.73677-2.9668 1.21277-.4022 1.44408-.4333 3.29514-.4429 1.68811-.01 2.15607.037 3.07757.3044 1.94533.5634 3.61469 1.5448 5.25598 3.0899l.71353.6717.22045-.5279c.3965-.9495 1.41246-2.5653 2.34288-3.7261 3.616343-4.512 9.633963-6.8249 15.231293-5.8542 6.12323 1.0619 11.17794 5.4929 13.09022 11.475.65833 2.0595.89394 3.835.79902 6.0212-.0443 1.0195-.17084 2.2237-.28128 2.6762-.11046.4525-.19002.8328-.17681.8452.0132.012.58007.2628 1.2597.5565 1.77422.7667 3.11855 1.695 4.53082 3.1286 1.47702 1.4994 2.39176 2.9594 3.03208 4.8397.56774 1.6671.74124 2.7291.74257 4.5453.005 6.18509-4.0155 11.54629-9.94662 13.26506-1.85031.5362-3.73755.62062-13.90781.62213l-9.50787.001v4.37864 4.37863l.36083.091c.55602.1396 1.7113.9307 2.27734 1.5595 1.04007 1.1554 1.59132 2.8703 1.40418 4.3682-.22022 1.7625-1.56023 3.5806-3.21817 4.3662-.76373.3619-1.07149.4277-2.1285.4546-.75791.019-1.46111-.041-1.8187-.157zm2.98573-22.59458v-2.88063l.37756-.0833c2.12924-.46947 3.65593-1.2523 5.11008-2.62026.58978-.55482 1.11936-1.00876 1.17685-1.00876.19403 0 5.174 2.95053 5.2334 3.10068.0324.0818-.41184.9679-.98712 1.96906-.57528 1.00115-1.02049 1.84576-.98934 1.87691.0312.0312 1.88917-.36065 4.12892-.87068 2.88702-.65741 4.07239-.98167 4.07262-1.11409.00027-.16226-2.31749-8.28241-2.3839-8.35191-.0137-.014-.47117.7613-1.0165 1.7235-.54532.96225-1.07413 1.86256-1.17514 2.0007-.17182.23497-.35541.15185-2.84959-1.29016-1.46626-.84774-2.68345-1.55814-2.70485-1.57874-.0214-.021.0994-.5245.26853-1.1197.39292-1.3833.41867-3.6798.0552-4.9267-.40582-1.3923-.56835-1.1929 2.37559-2.916 1.46324-.8564 2.67528-1.5392 2.69343-1.5173.0181.022.26896.8283.55736 1.7921s.57124 1.7052.62854 1.6476c.14547-.1464 3.41431-7.5975 3.41431-7.7827 0-.1227-7.95386-1.7899-8.04648-1.6866-.0139.016.42868.8166.98358 1.7799 1.00735 1.7488 1.00845 1.7519.70644 1.9447-.16636.1061-1.38023.8182-2.69748 1.582l-2.39501 1.3891-.90014-.8778c-1.5047-1.4675-2.7503-2.1739-4.64403-2.6337l-.99793-.2423.0369-3.1045.0368-3.1042 1.97773-.069 1.97772-.069-2.64632-3.0892c-1.45548-1.6991-2.65998-3.1052-2.67668-3.1245-.0167-.02-1.19272 1.3707-2.61339 3.0892l-2.583043 3.1245 1.84037.069 1.840363.069.0368 3.1032.0369 3.1031-.92885.2293c-1.818503.4487-3.915603 1.6828-4.937863 2.9058-.2817.337-.55593.6127-.60941.6127-.18272 0-5.33653-3.0502-5.33653-3.1584 0-.059.40815-.7977.907-1.6409s.87821-1.5618.84303-1.597c-.0798-.08-7.82668 1.19-7.94848 1.3028-.0488.045.50991 1.9048 1.24156 4.1324l1.33026 4.0503.48231-.8238c.26527-.4531.75335-1.3019 1.08462-1.8863.56585-.9982.61942-1.0515.88479-.88.15536.1005 1.38338.8216 2.72893 1.6026 2.14938 1.2476 2.43587 1.4545 2.35932 1.7038-.4908 1.5981-.53835 1.896-.53835 3.3729 0 1.1248.0712 1.8158.24741 2.4027.48122 1.6022.67699 1.3315-2.1345 2.95184-1.37572.7929-2.53944 1.45826-2.58604 1.47859-.0466.0203-.50741-.72107-1.02401-1.64757-.5166-.92646-1.00495-1.76836-1.08523-1.87096-.10966-.14-.47984.8146-1.48856 3.83874-.73843 2.21385-1.29684 4.06498-1.2409 4.11364.13107.11401 8.00477 1.67623 8.07821 1.6028.0305-.0305-.38481-.84058-.92285-1.80022-.53804-.95965-.95509-1.76491-.92677-1.78947.0283-.0246 1.20816-.70939 2.62186-1.52183l2.57037-1.47717 1.02811.96015c1.19468 1.11569 2.75158 1.98435 4.228643 2.35932l.99822.25341.0371 2.89895.0371 2.89895h1.37025 1.37025v-2.88064zm-2.88325-6.7047c-4.591563-1.20016-6.222293-7.03208-2.915603-10.42688 1.300873-1.3356 2.741673-1.9573 4.524513-1.9525 2.48419.01 4.57665 1.3978 5.69394 3.7854.58247 1.2447.68807 2.8973.27237 4.2622-.67724 2.2237-2.38134 3.85417-4.56657 4.36926-1.12161.26438-1.89044.2548-3.00865-.0375z" fill="#00bcf2" transform="translate(131.919 -501.019)"/></svg>